<svg id="Capa_1" enable-background="new 0 0 502 502" height="512" viewBox="0 0 502 502" width="512" xmlns="http://www.w3.org/2000/svg" xmlns:xlink="http://www.w3.org/1999/xlink"><linearGradient id="lg1"><stop offset="0" stop-color="#4f4c5f"/><stop offset=".9783" stop-color="#6a647f"/></linearGradient><linearGradient id="SVGID_1_" gradientUnits="userSpaceOnUse" x1="144.57" x2="50.019" xlink:href="#lg1" y1="88.839" y2="88.839"/><linearGradient id="lg2"><stop offset=".0005580357" stop-color="#5bd6fd"/><stop offset=".9777" stop-color="#a4e6ff"/></linearGradient><linearGradient id="SVGID_2_" gradientUnits="userSpaceOnUse" x1="251" x2="251" xlink:href="#lg2" y1="473.686" y2="369.983"/><linearGradient id="SVGID_3_" gradientUnits="userSpaceOnUse" x1="251" x2="251" xlink:href="#lg2" y1="248.71" y2="28.314"/><linearGradient id="SVGID_4_" gradientUnits="userSpaceOnUse" x1="251" x2="251" y1="203.367" y2="399.623"><stop offset=".0223" stop-color="#f9f2ab"/><stop offset=".9994" stop-color="#f6e66a"/></linearGradient><linearGradient id="SVGID_5_" gradientUnits="userSpaceOnUse" x1="150.816" x2="193.796" y1="217.103" y2="174.123"><stop offset=".0212" stop-color="#f5385d"/><stop offset="1" stop-color="#ff889e"/></linearGradient><linearGradient id="SVGID_6_" gradientUnits="userSpaceOnUse" x1="419.324" x2="137.051" xlink:href="#lg1" y1="301.495" y2="301.495"/><linearGradient id="SVGID_7_" gradientUnits="userSpaceOnUse" x1="278.188" x2="278.188" y1="401.694" y2="201.296"><stop offset=".0005580357" stop-color="#00bcfc"/><stop offset=".9783" stop-color="#81ddfd"/></linearGradient><linearGradient id="SVGID_8_" gradientUnits="userSpaceOnUse" x1="241.529" x2="346.164" y1="84.251" y2="84.251"><stop offset="0" stop-color="#f1f1f1"/><stop offset="1" stop-color="#efefef"/></linearGradient><g><path d="m119.843 58.715h-45.097c-13.656 0-24.727 11.071-24.727 24.727v35.52h94.55v-35.52c0-13.656-11.07-24.727-24.726-24.727z" fill="url(#SVGID_1_)"/><path d="m502 399.623v24.039c0 27.626-22.388 50.024-50.024 50.024h-401.952c-27.636 0-50.024-22.399-50.024-50.024v-24.039l251-29.64z" fill="url(#SVGID_2_)"/><path d="m502 155.663v47.704l-251 45.343-251-45.343v-47.704c0-27.626 22.388-50.024 50.024-50.024h120.764c8.661 0 16.229-5.845 18.427-14.223l6.017-22.986c6.2-23.634 27.555-40.116 51.989-40.116h93.25c24.434 0 45.789 16.482 51.979 40.116l6.028 22.986c2.188 8.378 9.766 14.223 18.427 14.223h35.071c27.636 0 50.024 22.399 50.024 50.024z" fill="url(#SVGID_3_)"/><path d="m204.339 428.219c2.351-2.839 4.079-6.14 5.072-9.689l12.635-45.128-93.479 11.039c9.934 17.854 22.956 33.763 38.362 46.977 11.168 9.578 28.026 8.134 37.41-3.199z" fill="#5bd6fd"/><path d="m0 203.367h502v196.255h-502z" fill="url(#SVGID_4_)"/><path d="m214.812 195.139-20.542-20.542c-11.868-11.869-31.111-11.868-42.98 0-11.868 11.868-11.868 31.111 0 42.979l20.542 20.542z" fill="url(#SVGID_5_)"/><path d="m138.298 331.538c-15.187 0-25.88 15.124-20.595 29.361 5.137 13.836 12.017 26.833 20.367 38.724h76.635l14.547-51.959-87.049-15.774c-1.288-.235-2.595-.352-3.905-.352z" fill="#f0e02c"/><circle cx="278.188" cy="301.495" fill="url(#SVGID_6_)" r="141.137"/><circle cx="278.188" cy="301.495" fill="url(#SVGID_7_)" r="100.199"/><g><path d="m328.677 262.809c-2.628 0-5.252-1.029-7.216-3.075-1.503-1.566-3.105-3.065-4.76-4.455-4.23-3.551-4.78-9.859-1.229-14.089s9.859-4.78 14.089-1.229c2.203 1.849 4.332 3.842 6.33 5.924 3.824 3.984 3.694 10.315-.29 14.139-1.939 1.86-4.433 2.785-6.924 2.785z" fill="#bfe7f8"/></g><g><path d="m295.664 242.045c-.919 0-1.852-.128-2.779-.395-5.407-1.562-11.025-2.354-16.698-2.354-5.523 0-10-4.478-9.999-10.001 0-5.522 4.478-9.999 10-9.999h.001c7.55.001 15.035 1.057 22.245 3.139 5.306 1.532 8.365 7.076 6.833 12.382-1.265 4.379-5.262 7.228-9.603 7.228z" fill="#bfe7f8"/></g><ellipse cx="204.062" cy="321.414" fill="#fd9bae" rx="12.598" ry="10.124"/><ellipse cx="352.314" cy="321.414" fill="#fd9bae" rx="12.598" ry="10.124"/><circle cx="225.66" cy="296.433" fill="#fff" r="24.981"/><circle cx="330.716" cy="296.433" fill="#fff" r="24.981"/><g fill="#383842"><circle cx="225.66" cy="296.433" r="14.889"/><circle cx="330.716" cy="296.433" r="14.889"/></g><path d="m278.188 322.997c-4.615 0-9.229-1.745-12.994-5.236-2.025-1.877-2.145-5.041-.267-7.066 1.877-2.025 5.042-2.144 7.065-.267 3.705 3.437 8.685 3.435 12.392 0 2.026-1.875 5.188-1.757 7.066.268 1.877 2.025 1.758 5.189-.268 7.066-3.764 3.489-8.38 5.235-12.994 5.235z" fill="#383842"/><path d="m324.775 62.862h-61.858c-11.813 0-21.389 9.576-21.389 21.389s9.576 21.389 21.389 21.389h61.858c11.813 0 21.389-9.576 21.389-21.389s-9.576-21.389-21.389-21.389z" fill="url(#SVGID_8_)"/></g></svg>