<svg id="Capa_1" enable-background="new 0 0 502 502" height="512" viewBox="0 0 502 502" width="512" xmlns="http://www.w3.org/2000/svg" xmlns:xlink="http://www.w3.org/1999/xlink"><linearGradient id="SVGID_1_" gradientUnits="userSpaceOnUse" x1="102.15" x2="102.15" y1="81.387" y2="135.967"><stop offset="0" stop-color="#4e5660"/><stop offset="1" stop-color="#64768d"/></linearGradient><linearGradient id="lg1"><stop offset="0" stop-color="#ec6f80"/><stop offset="1" stop-color="#eca0aa"/></linearGradient><linearGradient id="SVGID_2_" gradientUnits="userSpaceOnUse" x1="45.958" x2="156.373" xlink:href="#lg1" y1="61.13" y2="61.13"/><linearGradient id="SVGID_3_" gradientUnits="userSpaceOnUse" x1="93.476" x2="475.423" y1="288.823" y2="288.823"><stop offset="0" stop-color="#f9edaf"/><stop offset="1" stop-color="#fffcdd"/></linearGradient><linearGradient id="SVGID_4_" gradientUnits="userSpaceOnUse" x1="0" x2="502" xlink:href="#lg1" y1="168.867" y2="168.867"/><linearGradient id="SVGID_5_" gradientUnits="userSpaceOnUse" x1="251" x2="251" y1="481.419" y2="348.321"><stop offset="0" stop-color="#ac6c58"/><stop offset="1" stop-color="#da9b8c"/></linearGradient><linearGradient id="lg2"><stop offset="0" stop-color="#9fd8e6"/><stop offset="1" stop-color="#c4e8f0"/></linearGradient><linearGradient id="SVGID_6_" gradientUnits="userSpaceOnUse" x1="93.599" x2="93.599" xlink:href="#lg2" y1="379.993" y2="319.662"/><linearGradient id="SVGID_7_" gradientTransform="matrix(-1 0 0 1 502 0)" gradientUnits="userSpaceOnUse" x1="93.599" x2="93.599" xlink:href="#lg2" y1="379.993" y2="319.662"/><g><path d="m52.364 76.43h99.572v109.787h-99.572z" fill="url(#SVGID_1_)"/><path d="m143.908 28.467h-83.516c-15.387 0-27.86 12.473-27.86 27.86v9.606c0 15.386 12.473 27.86 27.86 27.86h83.516c15.387 0 27.86-12.473 27.86-27.86v-9.606c0-15.387-12.473-27.86-27.86-27.86z" fill="url(#SVGID_2_)"/><path d="m449.636 213.678-198.636-109.565-198.636 109.565v225.787c0 18.815 15.253 34.068 34.068 34.068h329.135c18.815 0 34.068-15.253 34.068-34.068v-225.787z" fill="url(#SVGID_3_)"/><path d="m403.329 239.09-132.2-76.325c-12.456-7.191-27.802-7.191-40.259 0l-169.768 98.016c-2.818 1.627-5.751 2.867-8.737 3.76v35.798c9.2-1.434 18.113-4.555 26.237-9.247l169.77-98.015c1.009-.583 1.986-.705 2.629-.705s1.62.122 2.629.705l132.2 76.325c8.205 4.737 18.689 2.085 23.654-5.984 5.165-8.395 2.382-19.399-6.155-24.328z" fill="#f5c98d"/><path d="m461.225 266.245c-6.909 0-13.911-1.76-20.326-5.464l-169.769-98.016c-12.456-7.191-27.802-7.191-40.259 0l-169.769 98.016c-19.484 11.251-44.392 4.571-55.638-14.908-11.247-19.481-4.573-44.392 14.908-55.638l184.07-106.272c28.811-16.634 64.307-16.634 93.117 0l184.07 106.272c19.481 11.246 26.155 36.157 14.908 55.638-7.544 13.066-21.236 20.372-35.312 20.372z" fill="url(#SVGID_4_)"/><path d="m294.894 331.383h-87.788c-13.422 0-24.303 10.881-24.303 24.303v117.848h136.393v-117.849c0-13.422-10.88-24.302-24.302-24.302z" fill="url(#SVGID_5_)"/><path d="m109.66 323.551h-57.296v72.785h57.295c13.904 0 25.175-11.271 25.175-25.175v-22.435c0-13.904-11.271-25.175-25.174-25.175z" fill="url(#SVGID_6_)"/><path d="m392.34 323.551h57.296v72.785h-57.296c-13.904 0-25.175-11.271-25.175-25.175v-22.435c.001-13.904 11.272-25.175 25.175-25.175z" fill="url(#SVGID_7_)"/><g><ellipse cx="163.114" cy="307.29" fill="#eaadcd" rx="14.936" ry="12.003"/><ellipse cx="338.885" cy="307.29" fill="#eaadcd" rx="14.936" ry="12.003"/><circle cx="188.721" cy="277.672" fill="#fff" r="29.618"/><circle cx="313.279" cy="277.672" fill="#fff" r="29.618"/><g fill="#3b3b44"><g><circle cx="188.721" cy="277.672" r="17.652"/><circle cx="313.279" cy="277.672" r="17.652"/></g><path d="m251 308.232c-5.247 0-10.495-1.984-14.775-5.953-2.025-1.878-2.145-5.041-.268-7.066 1.878-2.025 5.041-2.143 7.066-.268 4.697 4.355 11.256 4.355 15.953 0 2.024-1.875 5.188-1.758 7.066.268 1.877 2.025 1.758 5.189-.268 7.066-4.279 3.969-9.527 5.953-14.774 5.953z"/></g></g><circle cx="283.661" cy="411.471" fill="#f5c98d" r="12.648"/></g></svg>