<svg id="Capa_1" enable-background="new 0 0 502 502" height="512" viewBox="0 0 502 502" width="512" xmlns="http://www.w3.org/2000/svg" xmlns:xlink="http://www.w3.org/1999/xlink"><linearGradient id="lg1"><stop offset=".0223" stop-color="#8b59c5"/><stop offset="1" stop-color="#a47cd1"/></linearGradient><linearGradient id="SVGID_1_" gradientUnits="userSpaceOnUse" x1="74.357" x2="74.357" xlink:href="#lg1" y1="156.145" y2="71.037"/><linearGradient id="SVGID_2_" gradientUnits="userSpaceOnUse" x1="427.643" x2="427.643" xlink:href="#lg1" y1="156.145" y2="71.037"/><linearGradient id="SVGID_3_" gradientUnits="userSpaceOnUse" x1="0" x2="502" y1="269.421" y2="269.421"><stop offset="0" stop-color="#d0d7d7"/><stop offset="1" stop-color="#efefef"/></linearGradient><radialGradient id="SVGID_4_" cx="103.934" cy="433.973" gradientTransform="matrix(1.128 0 0 1.054 -13.341 -108.553)" gradientUnits="userSpaceOnUse" r="35.476" xlink:href="#lg1"/><linearGradient id="SVGID_5_" gradientUnits="userSpaceOnUse" x1="103.924" x2="103.924" y1="352.396" y2="272.377"><stop offset=".0217" stop-color="#6a647f"/><stop offset="1" stop-color="#4f4c5f"/></linearGradient><linearGradient id="lg2"><stop offset=".0206" stop-color="#76e6d5"/><stop offset="1" stop-color="#00c4a2"/></linearGradient><linearGradient id="SVGID_6_" gradientUnits="userSpaceOnUse" x1="103.924" x2="103.924" xlink:href="#lg2" y1="309.885" y2="249.99"/><linearGradient id="SVGID_7_" gradientUnits="userSpaceOnUse" x1="103.924" x2="103.924" xlink:href="#lg1" y1="281.868" y2="218.112"/><radialGradient id="SVGID_8_" cx="436.202" cy="265.98" gradientUnits="userSpaceOnUse" r="21.617" xlink:href="#lg2"/><radialGradient id="SVGID_9_" cx="368.142" cy="265.98" gradientUnits="userSpaceOnUse" r="21.617"><stop offset=".0212" stop-color="#f5385d"/><stop offset="1" stop-color="#ff889e"/></radialGradient><linearGradient id="SVGID_10_" gradientUnits="userSpaceOnUse" x1="414.585" x2="457.819" y1="331.601" y2="331.601"><stop offset=".0223" stop-color="#fccb88"/><stop offset=".9994" stop-color="#f7ac3e"/></linearGradient><radialGradient id="SVGID_11_" cx="368.142" cy="331.601" gradientUnits="userSpaceOnUse" r="21.617"><stop offset=".0005580357" stop-color="#5bd6fd"/><stop offset=".9777" stop-color="#a4e6ff"/></radialGradient><radialGradient id="SVGID_12_" cx="251" cy="289.598" gradientUnits="userSpaceOnUse" r="36.592" xlink:href="#lg2"/><g><path d="m127.855 107.879v-16.351c0-11.724-9.82-21.1-21.526-20.459-11.095.607-25.547 2.512-41.481 7.974-26.156 8.967-43.674 33.652-43.869 61.301-.038 5.415-.079 10.704-.12 15.801z" fill="url(#SVGID_1_)"/><path d="m374.145 107.879v-16.351c0-11.724 9.82-21.1 21.526-20.459 11.095.607 25.547 2.512 41.481 7.974 26.156 8.967 43.674 33.652 43.869 61.301.038 5.415.079 10.704.12 15.801z" fill="url(#SVGID_2_)"/><path d="m95.435 101.508c0-9.368-8.898-16.236-17.936-13.773-18.746 5.108-35.926 14.052-50.646 25.928-3.733 8.217-5.807 17.276-5.874 26.68-.038 5.415-.079 10.704-.12 15.801l67.894-42.563c4.158-2.605 6.682-7.167 6.682-12.073z" fill="#8b59c5"/><path d="m387.988 107.879c-17.664 0-283.931 0-273.975 0-62.968 0-114.013 51.045-114.013 114.013 0 1.975 0 98.641 0 97.532 0 61.574 49.916 111.489 111.489 111.489.705-.148 43.243 2.585 78.46-32.286 15.767-15.612 37.031-24.409 59.22-24.409 1.511.282 34.934-3.265 62.882 24.409 35.225 34.879 78.56 32.307 78.46 32.286 61.574 0 111.489-49.916 111.489-111.489 0-2.649 0-101.218 0-97.532 0-62.968-51.045-114.013-114.012-114.013z" fill="url(#SVGID_3_)"/><g><path d="m459.696 188.251c-3.373 0-6.665-1.705-8.551-4.795-3.755-6.154-8.354-11.709-13.666-16.51-4.1-3.705-4.42-10.033-.714-14.133 3.705-4.099 10.033-4.419 14.133-.714 6.74 6.092 12.571 13.134 17.33 20.933 2.879 4.717 1.389 10.875-3.329 13.753-1.628.993-3.427 1.466-5.203 1.466z" fill="#fff"/></g><g><path d="m415.749 152.621c-1.1 0-2.219-.183-3.315-.568-1.804-.634-3.665-1.205-5.532-1.699-5.342-1.413-8.528-6.889-7.115-12.232 1.415-5.343 6.889-8.527 12.233-7.115 2.374.628 4.744 1.356 7.044 2.164 5.214 1.831 7.956 7.543 6.125 12.756-1.445 4.118-5.31 6.694-9.44 6.694z" fill="#fff"/></g><ellipse cx="103.924" cy="349.013" fill="url(#SVGID_4_)" rx="47.657" ry="28.544"/><path d="m85.6 272.377v61.696c0 10.12 8.204 18.323 18.323 18.323s18.323-8.204 18.323-18.323v-61.696z" fill="url(#SVGID_5_)"/><path d="m85.6 328.147c5.822 1.137 11.957 1.75 18.324 1.75 6.366 0 12.502-.614 18.323-1.75v-55.77h-36.647z" fill="#4f4c5f"/><path d="m54.187 278.007c0 17.606 22.268 31.878 49.737 31.878s49.737-14.272 49.737-31.878v-28.017h-99.474z" fill="url(#SVGID_6_)"/><ellipse cx="103.924" cy="249.99" fill="url(#SVGID_7_)" rx="49.737" ry="31.878"/><circle cx="436.202" cy="265.98" fill="url(#SVGID_8_)" r="21.617"/><circle cx="368.142" cy="265.98" fill="url(#SVGID_9_)" r="21.617"/><circle cx="436.202" cy="331.601" fill="url(#SVGID_10_)" r="21.617"/><circle cx="368.142" cy="331.601" fill="url(#SVGID_11_)" r="21.617"/><circle cx="251" cy="289.598" fill="url(#SVGID_12_)" r="36.592"/><g><ellipse cx="140.95" cy="193.643" fill="#fdaece" rx="18.703" ry="15.031"/><ellipse cx="361.05" cy="193.643" fill="#fdaece" rx="18.703" ry="15.031"/><circle cx="173.015" cy="156.556" fill="#fff" r="37.087"/><ellipse cx="187.998" cy="156.556" fill="#383842" rx="22.104" ry="22.104" transform="matrix(.23 -.973 .973 .23 -7.563 303.556)"/><circle cx="328.985" cy="156.556" fill="#fff" r="37.087"/><g fill="#383842"><ellipse cx="343.89" cy="156.556" rx="22.104" ry="22.104" transform="matrix(.707 -.707 .707 .707 -9.979 289.021)"/><ellipse cx="251" cy="184.671" rx="16.594" ry="21.728"/></g></g></g></svg>