<svg id="Capa_1" enable-background="new 0 0 502 502" height="512" viewBox="0 0 502 502" width="512" xmlns="http://www.w3.org/2000/svg" xmlns:xlink="http://www.w3.org/1999/xlink"><radialGradient id="SVGID_1_" cx="136.839" cy="363.269" gradientUnits="userSpaceOnUse" r="137.789"><stop offset=".0223" stop-color="#f7f0a9"/><stop offset=".9994" stop-color="#f4e46a"/></radialGradient><linearGradient id="SVGID_2_" gradientUnits="userSpaceOnUse" x1="238.727" x2="502" y1="136.825" y2="136.825"><stop offset="0" stop-color="#a27ccf"/><stop offset=".9777" stop-color="#8959c3"/></linearGradient><linearGradient id="SVGID_3_" gradientUnits="userSpaceOnUse" x1="0" x2="251" y1="125.5" y2="125.5"><stop offset=".0206" stop-color="#77e4d3"/><stop offset="1" stop-color="#01c2a0"/></linearGradient><linearGradient id="SVGID_4_" gradientUnits="userSpaceOnUse" x1="376.5" x2="376.5" y1="502" y2="251"><stop offset="0" stop-color="#fd869c"/><stop offset=".9788" stop-color="#f3385d"/></linearGradient><g><path d="m0 251v183.281c0 37.4 30.319 67.719 67.719 67.719h183.281l22.678-126.402-22.678-124.598-125.5-26.463z" fill="url(#SVGID_1_)"/><path d="m434.281 0h-183.281l-12.273 125.5 12.273 125.5 125.5 22.65 125.5-22.65v-183.281c0-37.4-30.319-67.719-67.719-67.719z" fill="url(#SVGID_2_)"/><path d="m67.719 0c-37.4 0-67.719 30.319-67.719 67.719v183.281h251v-251z" fill="url(#SVGID_3_)"/><g><ellipse cx="37.614" cy="149.116" fill="#fb99ac" rx="14.936" ry="12.003"/><ellipse cx="213.386" cy="149.116" fill="#fb99ac" rx="14.936" ry="12.003"/><circle cx="63.221" cy="119.498" fill="#fff" r="29.618"/><circle cx="187.779" cy="119.498" fill="#fff" r="29.618"/><g fill="#383842"><g><circle cx="63.221" cy="119.498" r="17.652"/><circle cx="187.779" cy="119.498" r="17.652"/></g><path d="m125.5 150.059c-5.247 0-10.495-1.984-14.775-5.953-2.025-1.878-2.145-5.041-.268-7.066 1.879-2.025 5.041-2.144 7.066-.268 4.697 4.355 11.256 4.355 15.953 0 2.023-1.875 5.188-1.757 7.066.268 1.877 2.025 1.758 5.188-.268 7.066-4.279 3.968-9.527 5.953-14.774 5.953z"/></g></g><path d="m251 251v251h183.281c37.4 0 67.719-30.319 67.719-67.719v-183.281z" fill="url(#SVGID_4_)"/><g><path d="m434.281 482c-5.522 0-10-4.478-10-10s4.478-10 10-10c2.984 0 5.969-.496 8.868-1.476 5.234-1.77 10.908 1.043 12.674 6.275 1.767 5.233-1.043 10.907-6.275 12.674-4.966 1.678-10.103 2.527-15.267 2.527z" fill="#fdb0bf"/></g><g><path d="m466.201 456.71c-5.18-1.917-7.823-7.67-5.906-12.85.803-2.169 1.329-4.451 1.565-6.784.557-5.495 5.455-9.488 10.956-8.942 5.494.556 9.498 5.461 8.942 10.956-.406 4.017-1.317 7.958-2.708 11.714-1.907 5.153-7.646 7.833-12.849 5.906z" fill="#fdb0bf"/></g><g><ellipse cx="288.614" cy="149.116" fill="#fb99ac" rx="14.936" ry="12.003"/><ellipse cx="464.386" cy="149.116" fill="#fb99ac" rx="14.936" ry="12.003"/><circle cx="314.221" cy="119.536" fill="#d6d5d8" r="29.58"/><path d="m284.641 120.984c.774 15.667 13.721 28.132 29.58 28.132s28.806-12.465 29.58-28.132z" fill="#fff"/><path d="m296.636 120.984c.755 9.053 8.337 16.166 17.586 16.166 9.248 0 16.83-7.113 17.585-16.166z" fill="#383842"/><circle cx="438.779" cy="119.536" fill="#d6d5d8" r="29.58"/><path d="m409.198 120.984c.774 15.667 13.721 28.132 29.58 28.132s28.806-12.465 29.58-28.132z" fill="#fff"/><g fill="#383842"><path d="m421.193 120.984c.755 9.053 8.337 16.166 17.585 16.166s16.83-7.113 17.586-16.166z"/><path d="m387.874 152.562c-1.824 0-3.653-.662-5.098-2-3.754-3.48-8.799-3.48-12.553 0-3.04 2.815-7.784 2.636-10.6-.4-2.816-3.038-2.637-7.783.4-10.6 9.547-8.85 23.404-8.85 32.951 0 3.037 2.816 3.217 7.562.4 10.6-1.476 1.593-3.485 2.4-5.5 2.4z"/></g></g><g><ellipse cx="288.614" cy="400.116" fill="#fb99ac" rx="14.936" ry="12.003"/><ellipse cx="464.386" cy="400.116" fill="#fb99ac" rx="14.936" ry="12.003"/><circle cx="314.221" cy="370.498" fill="#fff" r="29.618"/><circle cx="438.779" cy="370.498" fill="#fff" r="29.618"/><path d="m324.005 380.929c-2.647.001-5.214-1.404-6.579-3.888-.94-1.711-2.555-1.896-3.205-1.896-.649.001-2.263.186-3.203 1.895-1.995 3.631-6.557 4.955-10.185 2.96-3.63-1.995-4.955-6.555-2.96-10.185 3.277-5.964 9.542-9.669 16.348-9.67 6.806 0 13.07 3.705 16.35 9.669 1.995 3.63.671 8.189-2.959 10.186-1.147.63-2.385.929-3.607.929z" fill="#383842"/><path d="m428.995 380.929c-1.222 0-2.46-.299-3.606-.929-3.63-1.996-4.954-6.556-2.959-10.186 3.278-5.964 9.543-9.669 16.349-9.669h.001c6.806.001 13.07 3.706 16.348 9.67 1.995 3.63.67 8.189-2.96 10.185-3.627 1.996-8.188.672-10.185-2.96-.94-1.709-2.554-1.894-3.203-1.895-.65 0-2.265.185-3.205 1.896-1.366 2.483-3.932 3.888-6.58 3.888z" fill="#383842"/><g><path d="m388.171 410.302h-23.342c-6.508 0-11.784-5.276-11.784-11.784 0-6.508 5.276-11.784 11.784-11.784h23.342c6.508 0 11.784 5.276 11.784 11.784 0 6.508-5.276 11.784-11.784 11.784z" fill="#383842"/></g></g><g><ellipse cx="37.614" cy="400.116" fill="#fb99ac" rx="14.936" ry="12.003"/><ellipse cx="213.386" cy="400.116" fill="#fb99ac" rx="14.936" ry="12.003"/><circle cx="63.221" cy="370.498" fill="#fff" r="29.618"/><ellipse cx="75.187" cy="370.498" fill="#383842" rx="17.652" ry="17.652" transform="matrix(.23 -.973 .973 .23 -302.675 358.551)"/><circle cx="187.779" cy="370.498" fill="#fff" r="29.618"/><g fill="#383842"><ellipse cx="199.682" cy="370.498" rx="17.652" ry="17.652" transform="matrix(.707 -.707 .707 .707 -203.496 249.713)"/><ellipse cx="125.5" cy="392.95" rx="13.252" ry="17.352"/></g></g><g><path d="m472 77.719c-5.521 0-9.997-4.473-10-9.994-.001-2.489-.329-4.948-.975-7.309-1.457-5.328 1.681-10.827 7.008-12.284 5.329-1.454 10.827 1.681 12.283 7.009 1.115 4.075 1.681 8.305 1.684 12.572.003 5.523-4.472 10.002-9.994 10.006-.002 0-.004 0-.006 0z" fill="#d3c1e7"/></g><g><path d="m446.172 42.692c-3.709-1.758-7.823-2.688-11.899-2.691-5.522-.004-9.996-4.485-9.992-10.008.004-5.52 4.48-9.992 10-9.992h.008c7.014.005 14.084 1.602 20.448 4.617 4.99 2.365 7.119 8.328 4.755 13.319-2.354 4.966-8.304 7.13-13.32 4.755z" fill="#d3c1e7"/></g></g></svg>