<svg id="Capa_1" enable-background="new 0 0 502 502" height="512" viewBox="0 0 502 502" width="512" xmlns="http://www.w3.org/2000/svg" xmlns:xlink="http://www.w3.org/1999/xlink"><linearGradient id="SVGID_1_" gradientUnits="userSpaceOnUse" x1="133.161" x2="368.839" y1="121.004" y2="121.004"><stop offset="0" stop-color="#f4d952"/><stop offset="1" stop-color="#f9edaf"/></linearGradient><linearGradient id="SVGID_2_" gradientUnits="userSpaceOnUse" x1="158.226" x2="158.226" y1="195.638" y2="139.228"><stop offset="0" stop-color="#6fcd90"/><stop offset=".2304" stop-color="#72cf95"/><stop offset=".5209" stop-color="#79d4a5"/><stop offset=".8425" stop-color="#86dcbf"/><stop offset="1" stop-color="#8de1ce"/></linearGradient><linearGradient id="SVGID_3_" gradientUnits="userSpaceOnUse" x1="95.313" x2="438.427" y1="340.573" y2="340.573"><stop offset="0" stop-color="#ec6f80"/><stop offset="1" stop-color="#eca0aa"/></linearGradient><linearGradient id="SVGID_4_" gradientUnits="userSpaceOnUse" x1="251" x2="251" y1="322.567" y2="418.988"><stop offset="0" stop-color="#4e5660"/><stop offset="1" stop-color="#64768d"/></linearGradient><g><path d="m158.226 242.007c-13.843 0-25.065-11.222-25.065-25.065v-99.104c0-64.976 52.863-117.838 117.839-117.838s117.839 52.862 117.839 117.839c0 13.842-11.222 25.065-25.065 25.065s-25.065-11.222-25.065-25.065c0-37.335-30.375-67.71-67.71-67.71s-67.71 30.374-67.71 67.71v99.104c.001 13.842-11.22 25.064-25.063 25.064z" fill="url(#SVGID_1_)"/><path d="m189.261 128.391h-62.07c-9.963 0-18.039 8.077-18.039 18.04v63.639h98.148v-63.64c0-9.963-8.076-18.039-18.039-18.039z" fill="url(#SVGID_2_)"/><path d="m61.513 289.736c0 99.158 85.598 164.453 159.882 204.754 18.458 10.014 40.751 10.014 59.209 0 74.285-40.301 159.883-105.596 159.883-204.754 0-61.077-49.513-110.59-110.59-110.59-30.898 0-58.831 12.676-78.897 33.106-20.066-20.43-47.999-33.106-78.897-33.106-61.077-.001-110.59 49.512-110.59 110.59z" fill="url(#SVGID_3_)"/><path d="m288.308 369.117c0-21.109-17.532-38.124-38.829-37.278-19.118.76-34.74 16.177-35.735 35.284-.582 11.187 3.769 21.366 11.069 28.561 1.604 1.581 2.315 3.855 1.893 6.067l-6.849 35.922c-1.539 8.07 4.648 15.548 12.863 15.548h36.559c8.216 0 14.402-7.478 12.863-15.548l-6.849-35.921c-.424-2.223.304-4.499 1.914-6.088 6.853-6.764 11.101-16.158 11.101-26.547z" fill="url(#SVGID_4_)"/><g><ellipse cx="163.114" cy="294.165" fill="#efc5db" rx="14.936" ry="12.003"/><ellipse cx="338.886" cy="294.165" fill="#efc5db" rx="14.936" ry="12.003"/><circle cx="188.721" cy="264.547" fill="#fff" r="29.618"/><ellipse cx="200.687" cy="264.547" fill="#3b3b44" rx="17.652" ry="17.652" transform="matrix(.228 -.974 .974 .228 -102.653 399.622)"/><circle cx="313.279" cy="264.547" fill="#fff" r="29.618"/><g fill="#3b3b44"><ellipse cx="325.182" cy="264.547" rx="17.652" ry="17.652" transform="matrix(.922 -.387 .387 .922 -77.02 146.388)"/><ellipse cx="251" cy="286.999" rx="13.252" ry="17.352"/></g></g><path d="m128.208 156.183c-6.579 2.162-12.946 4.797-19.057 7.87v34.756c8.689-6.027 18.284-10.837 28.539-14.19 7.267-2.376 11.523-9.908 9.906-17.381-1.886-8.718-10.915-13.84-19.388-11.055z" fill="#3cb667"/><g fill="#ffccd3"><path d="m359.212 404.193c-2.473 0-4.951-.912-6.885-2.749-4.004-3.804-4.168-10.133-.364-14.138 11.098-11.685 20.169-23.739 26.964-35.83 2.705-4.814 8.802-6.522 13.617-3.818 4.815 2.706 6.524 8.803 3.818 13.617-7.604 13.53-17.664 26.923-29.899 39.805-1.965 2.069-4.606 3.113-7.251 3.113z"/><path d="m402.345 328.583c-.723 0-1.457-.079-2.193-.243-5.39-1.206-8.781-6.553-7.575-11.942.469-2.095.887-4.236 1.244-6.365.912-5.447 6.07-9.123 11.515-8.21 5.447.912 9.123 6.067 8.21 11.515-.416 2.483-.905 4.982-1.452 7.428-1.041 4.653-5.171 7.817-9.749 7.817z"/></g></g></svg>